# xmcd CD database file generated by OrangeCD 6.2
#
# Track frame offsets:
#	150
#	13610
#	28142
#	41180
#	55870
#	69380
#	83250
#	97942
#	111052
#	126147
#	139500
#	155802
#	169955
#	183347
#	197500
#	210922
#	223310
#	235422
#	248952
#	263370
#
# Disc length: 3697 seconds
#
# Revision: 6
# Processed by: cddbd v1.5.2PL0 Copyright (c) Steve Scherf et al.
# Submitted via: OrangeCD 6.2
#
DISCID=100e6f14
DTITLE=Various Artist - East Coast Blues
DYEAR=1996
DGENRE=Blues
TTITLE0=Bobby Leecan's Need-More Band - Washboard Cut Out
TTITLE1=Julius Daniels - Ninety-Nine Year Blues
TTITLE2=Blind Blake - Southern Rag
TTITLE3=Luke Jordan - If I Call You Mama
TTITLE4=Jack Gowdlock - Poor Jane Blues
TTITLE5=Peg Leg Howell - Turkey Buzzard Blues
TTITLE6=Luke Jordan - Pick Poor Robin Clean
TTITLE7=Jack Gowdlock - Rollin' Dough Blues
TTITLE8=Julius Daniels - Slippin' And Slidin' Up The Golden Street
TTITLE9=Luke Jordan - Tom Brown Sits In His Prison Cell
TTITLE10=Blind Blake - Depression's Gone From Me Blues
TTITLE11=Blind Boy Fuller - Walking And Looking Blues
TTITLE12=Boy Green - Play My Juke Box
TTITLE13=Sonny Terry and Brownie McGhee - Carolina Blues
TTITLE14=Gabriel Brown - Down In The Bottom
TTITLE15=Skoodle Dum Doo and Sheffield - Gas Ration Blues
TTITLE16=Marylin Scott - I Got What My Daddy Likes
TTITLE17=Boy Green - A And B Blues
TTITLE18=Sunny Jones - Don't Want Pretty Women
TTITLE19=Skoodle Dum Doo and Sheffield - Tampa Blues
EXTD=
EXTT0=
EXTT1=
EXTT2=
EXTT3=
EXTT4=
EXTT5=
EXTT6=
EXTT7=
EXTT8=
EXTT9=
EXTT10=
EXTT11=
EXTT12=
EXTT13=
EXTT14=
EXTT15=
EXTT16=
EXTT17=
EXTT18=
EXTT19=
PLAYORDER=
